<svg width="80" height="94" viewBox="0 0 80 94" fill="none" xmlns="http://www.w3.org/2000/svg">
<path d="M64.6788 44.1336C60.4974 40.4388 55.525 37.7334 50.1362 36.2213C43.5168 34.3649 36.5164 34.304 29.8653 36.0452C24.4273 37.4789 19.3888 40.1192 15.1302 43.7666C11.3173 46.9859 8.2523 50.9857 6.14567 55.4911C4.03905 59.9964 2.94075 64.9006 2.92624 69.8668C2.92624 89.2512 19.3857 94 39.6862 94C59.9867 94 76.4535 89.2512 76.4535 69.8668C76.4404 64.9952 75.384 60.1818 73.3541 55.7455C71.3242 51.3092 68.3671 47.3512 64.6788 44.1336ZM21.9168 70.5568C21.2025 70.5568 20.5042 70.3467 19.9103 69.9531C19.3164 69.5596 18.8534 69.0002 18.5801 68.3457C18.3067 67.6912 18.2352 66.971 18.3746 66.2762C18.5139 65.5814 18.8579 64.9432 19.363 64.4422C19.8681 63.9413 20.5116 63.6002 21.2122 63.462C21.9128 63.3238 22.6389 63.3947 23.2989 63.6658C23.9588 63.9369 24.5229 64.396 24.9197 64.985C25.3166 65.5741 25.5284 66.2666 25.5284 66.975C25.5303 67.4462 25.4383 67.9132 25.2576 68.3491C25.0769 68.7849 24.811 69.181 24.4754 69.5146C24.1397 69.8482 23.7409 70.1126 23.3018 70.2927C22.8626 70.4729 22.392 70.5651 21.9168 70.5641V70.5568ZM43.2756 81.8967C43.3591 81.9697 43.4259 82.0595 43.4717 82.1601C43.5175 82.2607 43.5412 82.3699 43.5412 82.4802C43.5412 82.5906 43.5175 82.6997 43.4717 82.8003C43.4259 82.9009 43.3591 82.9907 43.2756 83.0637C43.095 83.2197 42.8637 83.3056 42.6243 83.3056C42.3849 83.3056 42.1536 83.2197 41.973 83.0637L39.8786 81.1701L37.7768 83.0711C37.5974 83.2265 37.3673 83.3121 37.1292 83.3121C36.891 83.3121 36.661 83.2265 36.4816 83.0711C36.3981 82.9981 36.3313 82.9083 36.2855 82.8077C36.2397 82.7071 36.216 82.598 36.216 82.4876C36.216 82.3772 36.2397 82.2681 36.2855 82.1675C36.3313 82.0669 36.3981 81.9771 36.4816 81.9041L38.5835 80.0031L36.4816 78.1094C36.3981 78.0364 36.3313 77.9466 36.2855 77.846C36.2397 77.7454 36.216 77.6363 36.216 77.5259C36.216 77.4155 36.2397 77.3064 36.2855 77.2058C36.3313 77.1052 36.3981 77.0154 36.4816 76.9424C36.661 76.787 36.891 76.7014 37.1292 76.7014C37.3673 76.7014 37.5974 76.787 37.7768 76.9424L39.8786 78.836L41.973 76.9424C42.1536 76.7865 42.3849 76.7006 42.6243 76.7006C42.8637 76.7006 43.095 76.7865 43.2756 76.9424C43.3591 77.0154 43.4259 77.1052 43.4717 77.2058C43.5175 77.3064 43.5412 77.4155 43.5412 77.5259C43.5412 77.6363 43.5175 77.7454 43.4717 77.846C43.4259 77.9466 43.3591 78.0364 43.2756 78.1094L41.1738 80.0031L43.2756 81.8967ZM57.3372 70.5568C56.6229 70.5568 55.9246 70.3467 55.3307 69.9531C54.7367 69.5596 54.2738 69.0002 54.0005 68.3457C53.7271 67.6912 53.6556 66.971 53.795 66.2762C53.9343 65.5814 54.2783 64.9432 54.7834 64.4422C55.2885 63.9413 55.932 63.6002 56.6326 63.462C57.3332 63.3238 58.0593 63.3947 58.7193 63.6658C59.3792 63.9369 59.9433 64.396 60.3401 64.985C60.737 65.5741 60.9488 66.2666 60.9488 66.975C60.9498 67.4466 60.8568 67.9137 60.6753 68.3496C60.4938 68.7855 60.2272 69.1816 59.891 69.515C59.5547 69.8485 59.1554 70.1128 58.7159 70.2929C58.2763 70.4729 57.8053 70.5651 57.3298 70.5641L57.3372 70.5568Z" fill="#2E1B2B"/>
<path d="M50.0992 36.3901C50.0992 36.3901 59.5278 -5.60067 75.521 0.630791C90.1007 6.30443 64.4198 44.5079 64.4198 44.5079L55.2501 45.5722L50.0992 36.3901Z" fill="#2E1B2B"/>
<path d="M29.9467 36.3901C29.9467 36.3901 20.5106 -5.60067 4.47302 0.630791C-10.0918 6.30443 15.5743 44.5079 15.5743 44.5079L24.7439 45.5722L29.9467 36.3901Z" fill="#2E1B2B"/>
</svg>
