<svg width="49" height="68" viewBox="0 0 49 68" fill="none" xmlns="http://www.w3.org/2000/svg">
<path d="M42.3786 18.9941C41.0604 17.7352 39.678 16.5403 38.3811 15.4734L38.0605 15.2103L37.4263 14.6982C37.1127 14.4492 36.8135 14.2074 36.5142 13.9869C34.1627 12.1447 32.4169 10.9498 32.4169 10.9498C27.5002 -5.98518 9.84282 0.280989 3.91426 6.24132C3.27644 6.84678 2.73997 7.55036 2.32524 8.3253C1.78862 9.57192 1.65897 10.9556 1.95471 12.2799C2.28633 13.9739 2.8523 15.6136 3.63636 17.152C3.72187 17.3227 3.80738 17.5005 3.90001 17.6783C4.34893 18.5532 4.82635 19.3853 5.32515 20.1464C5.51754 20.4522 5.70993 20.751 5.8952 21.0283L6.451 21.8249C6.98808 22.6739 7.65395 23.4346 8.42481 24.0796C8.42481 24.0796 7.77638 24.0796 1.79794 37.3872C1.50579 38.0985 1.24926 38.8098 1.03549 39.4428C0.964238 39.6562 0.892982 39.8695 0.828851 40.0758V47.6365C0.934503 47.7803 1.05382 47.9137 1.18513 48.0348C1.64404 48.4263 2.17669 48.7223 2.7518 48.9055C3.32692 49.0888 3.93291 49.1554 4.5342 49.1016C4.5342 49.1016 4.5342 48.6535 4.63396 47.8498C4.68384 47.4017 4.76222 46.847 4.88335 46.1926C5.55477 42.6842 6.75608 39.298 8.44619 36.1497C8.36781 36.3986 5.87382 44.6847 6.08759 48.874C6.08759 48.938 6.08759 48.9949 6.08759 49.059C6.4795 56.2924 11.0114 58.0706 11.0114 58.0706C11.0114 58.0706 12.2228 58.917 17.2535 59.7776C14.4161 60.0286 11.5658 59.466 9.03762 58.1559C7.31321 58.5614 4.90473 59.7349 5.09712 62.0109C5.42491 65.9513 13.9828 66.2785 20.061 67.5943C24.4518 68.4459 28.9981 67.9499 33.101 66.1718L33.7779 65.8446L33.8991 65.7877C34.4592 65.5012 35.0039 65.1854 35.5308 64.8418C35.8536 65.083 36.1942 65.2993 36.5498 65.489C37.0935 65.7759 37.6702 65.9957 38.2671 66.1433C38.8816 66.3013 39.5138 66.3802 40.1483 66.3781C41.403 66.3786 42.639 66.0737 43.7491 65.4898C44.8591 64.9059 45.8098 64.0606 46.5188 63.0272C47.2277 61.9938 47.6735 60.8034 47.8175 59.5592C47.9615 58.315 47.7994 57.0546 47.3452 55.887C46.6257 54.344 45.4796 53.0383 44.0417 52.1235C42.6039 51.2087 40.9342 50.7229 39.2291 50.7233C38.6309 50.7243 38.0342 50.7839 37.4477 50.9011C37.2196 50.9509 36.9916 51.0007 36.7351 51.0647C35.3596 51.4584 34.0981 52.1744 33.0558 53.1529C32.0134 54.1315 31.2203 55.3444 30.7424 56.6908C31.2656 54.3439 32.6643 52.284 34.6544 50.9296C34.8753 50.7802 35.0962 50.638 35.3242 50.5099C35.5522 50.3819 35.7945 50.261 36.0368 50.1472L36.4073 49.9907C36.9064 49.7881 37.4211 49.6263 37.9464 49.5071C38.2121 49.4453 38.4809 49.3978 38.7516 49.3648C39.1677 49.3135 39.5865 49.2874 40.0058 49.2866C40.6179 49.2853 41.2287 49.3424 41.8299 49.4573C42.1221 49.5142 42.4142 49.5853 42.6993 49.6706C42.9843 49.756 43.2622 49.8485 43.5401 49.9623C43.9463 41.8184 39.3288 32.7783 34.9893 26.2063C35.6543 27.1319 36.393 28.0024 37.1983 28.8095C37.8758 29.5 38.6099 30.1328 39.393 30.7014L39.7136 30.929C40.1303 31.2192 40.5633 31.4851 41.0105 31.7256L41.3383 31.8963C41.6589 32.0528 41.9867 32.1951 42.3074 32.3231C44.3881 33.1126 46.369 33.0344 47.8155 31.6616C47.9225 31.5619 48.0225 31.455 48.1148 31.3416V26.1067C47.0032 23.8094 44.8013 21.32 42.3786 18.9941ZM9.60055 9.74781C9.22258 9.74781 8.86009 9.59794 8.59282 9.33117C8.32556 9.0644 8.17541 8.70257 8.17541 8.3253C8.17479 8.14133 8.21104 7.95909 8.28201 7.78931C8.35299 7.61953 8.45726 7.46562 8.5887 7.33665C8.71425 7.20654 8.86441 7.10259 9.03049 7.03081C9.38238 6.88846 9.77596 6.88846 10.1278 7.03081C10.2939 7.10259 10.4441 7.20654 10.5696 7.33665C10.7011 7.46562 10.8053 7.61953 10.8763 7.78931C10.9473 7.95909 10.9835 8.14133 10.9829 8.3253C10.9849 8.69772 10.8405 9.05607 10.5807 9.32337C10.3209 9.59068 9.96642 9.74562 9.59342 9.75493L9.60055 9.74781ZM30.4502 41.9464C21.0942 43.5325 19.8829 16.7324 19.8829 16.7324C19.8829 16.7324 24.201 41.5339 29.7021 40.5666C35.6021 39.5281 27.6356 23.4964 24.3934 15.5303C24.7497 16.1136 39.6922 40.4385 30.4502 41.9464Z" fill="#2E1B2B"/>
<path d="M48.1789 26.1067C47.0032 23.8094 44.8013 21.32 42.3786 18.9941C41.0604 17.7352 39.678 16.5403 38.3811 15.4734L38.0605 15.2103L37.4263 14.6982C37.1127 14.4492 36.8135 14.2074 36.5142 13.9869C34.1627 12.1447 32.4169 10.9498 32.4169 10.9498C27.5002 -5.98518 9.84282 0.280989 3.91426 6.24132C3.27644 6.84678 2.73997 7.55036 2.32524 8.3253C1.78862 9.57192 1.65897 10.9556 1.95471 12.2799C2.28633 13.9739 2.8523 15.6136 3.63636 17.152C3.72187 17.3227 3.80738 17.5005 3.90001 17.6783C4.34893 18.5532 4.82635 19.3853 5.32515 20.1464C5.51754 20.4522 5.70993 20.751 5.8952 21.0283L6.451 21.8249C6.98808 22.6739 7.65395 23.4346 8.42481 24.0796C8.42481 24.0796 7.77638 24.0796 1.79794 37.3872C1.50579 38.0985 1.24926 38.8098 1.03549 39.4428C0.964238 39.6562 0.892982 39.8695 0.828851 40.0758C-0.0974861 43.0346 -0.168743 45.0546 0.230294 46.3989C0.262066 46.5225 0.302546 46.6437 0.351431 46.7616C0.458102 47.0733 0.609301 47.3679 0.800348 47.6365C0.906001 47.7803 1.02531 47.9137 1.15663 48.0348C1.61899 48.4299 2.15635 48.728 2.73665 48.9113C3.31694 49.0946 3.92829 49.1593 4.5342 49.1016C4.5342 49.1016 4.5342 48.6535 4.63396 47.8498C4.68384 47.4017 4.76222 46.847 4.88335 46.1926C5.55477 42.6842 6.75608 39.298 8.44619 36.1497C8.36781 36.3986 5.87382 44.6847 6.08759 48.874C6.08759 48.938 6.08759 48.9949 6.08759 49.059C6.4795 56.2924 11.0114 58.0706 11.0114 58.0706C11.0114 58.0706 12.2228 58.917 17.2535 59.7776C14.4161 60.0286 11.5658 59.466 9.03762 58.1559C7.31321 58.5614 4.90473 59.7349 5.09712 62.0109C5.42491 65.9513 13.9828 66.2785 20.061 67.5943C24.4518 68.4459 28.9981 67.9499 33.101 66.1718L33.7779 65.8446L33.8991 65.7877C34.4592 65.5012 35.0039 65.1854 35.5308 64.8418C35.8536 65.083 36.1942 65.2993 36.5498 65.489C37.0935 65.7759 37.6702 65.9957 38.2671 66.1433C38.8816 66.3013 39.5138 66.3802 40.1483 66.3781C41.403 66.3786 42.639 66.0737 43.7491 65.4898C44.8591 64.9059 45.8098 64.0606 46.5188 63.0272C47.2277 61.9938 47.6735 60.8034 47.8175 59.5592C47.9615 58.315 47.7994 57.0546 47.3452 55.887C46.6257 54.344 45.4796 53.0383 44.0417 52.1235C42.6039 51.2087 40.9342 50.7229 39.2291 50.7233C38.6309 50.7243 38.0342 50.7839 37.4477 50.9011C37.2196 50.9509 36.9916 51.0007 36.7351 51.0647C35.3596 51.4584 34.0981 52.1744 33.0558 53.1529C32.0134 54.1315 31.2203 55.3444 30.7424 56.6908C31.2656 54.3439 32.6643 52.284 34.6544 50.9296C34.8753 50.7802 35.0962 50.638 35.3242 50.5099C35.5522 50.3819 35.7945 50.261 36.0368 50.1472L36.4073 49.9907C36.9064 49.7881 37.4211 49.6263 37.9464 49.5071C38.2121 49.4453 38.4809 49.3978 38.7516 49.3648C39.1677 49.3135 39.5865 49.2874 40.0058 49.2866C40.6179 49.2853 41.2287 49.3424 41.8299 49.4573C42.1221 49.5142 42.4142 49.5853 42.6993 49.6706C42.9843 49.756 43.2622 49.8485 43.5401 49.9623C43.9463 41.8184 39.3288 32.7783 34.9893 26.2063C35.6543 27.1319 36.393 28.0024 37.1983 28.8095C37.8758 29.5 38.6099 30.1328 39.393 30.7014L39.7136 30.929C40.1303 31.2192 40.5633 31.4851 41.0105 31.7256L41.3383 31.8963C41.6589 32.0528 41.9867 32.1951 42.3074 32.3231C44.3881 33.1126 46.369 33.0344 47.8155 31.6616C47.9225 31.5619 48.0225 31.455 48.1148 31.3416C49.3831 29.9404 49.1836 28.1053 48.1789 26.1067ZM9.59342 9.74781C9.21545 9.74781 8.85296 9.59794 8.5857 9.33117C8.31843 9.0644 8.16829 8.70257 8.16829 8.3253C8.16767 8.14133 8.20391 7.95909 8.27489 7.78931C8.34586 7.61953 8.45014 7.46562 8.58158 7.33665C8.70712 7.20654 8.85729 7.10259 9.02337 7.03081C9.37525 6.88846 9.76884 6.88846 10.1207 7.03081C10.2868 7.10259 10.437 7.20654 10.5625 7.33665C10.6939 7.46562 10.7982 7.61953 10.8692 7.78931C10.9402 7.95909 10.9764 8.14133 10.9758 8.3253C10.9778 8.69652 10.8344 9.05383 10.5761 9.32094C10.3178 9.58805 9.96517 9.74379 9.59342 9.75493V9.74781ZM30.4502 41.9464C21.0942 43.5325 19.8829 16.7324 19.8829 16.7324C19.8829 16.7324 24.201 41.5339 29.7021 40.5666C35.6021 39.5281 27.6356 23.4964 24.3934 15.5303C24.7497 16.1136 39.6922 40.4385 30.4502 41.9464Z" fill="#2E1B2B"/>
<path d="M48.1789 26.1067C47.0032 23.8094 44.8013 21.32 42.3786 18.9941C41.0604 17.7352 39.678 16.5403 38.3811 15.4734L38.0605 15.2103L37.4263 14.6982C37.1127 14.4492 36.8135 14.2074 36.5142 13.9869C34.1627 12.1447 32.4169 10.9498 32.4169 10.9498C27.5002 -5.98518 9.84282 0.280989 3.91426 6.24132C3.27644 6.84678 2.73997 7.55036 2.32524 8.3253C1.78862 9.57192 1.65897 10.9556 1.95471 12.2799C2.28633 13.9739 2.8523 15.6136 3.63636 17.152C3.72187 17.3227 3.80738 17.5005 3.90001 17.6783C4.34893 18.5532 4.82635 19.3853 5.32515 20.1464C5.51754 20.4522 5.70993 20.751 5.8952 21.0283L6.451 21.8249C6.98808 22.6739 7.65395 23.4346 8.42481 24.0796C8.42481 24.0796 7.77638 24.0796 1.79794 37.3872C1.50579 38.0985 1.24926 38.8098 1.03549 39.4428C0.964238 39.6562 0.892982 39.8695 0.828851 40.0758C-0.0974861 43.0346 -0.168743 45.0546 0.230294 46.3989C0.262066 46.5225 0.302546 46.6437 0.351431 46.7616C0.458102 47.0733 0.609301 47.3679 0.800348 47.6365C0.906001 47.7803 1.02531 47.9137 1.15663 48.0348C1.61899 48.4299 2.15635 48.728 2.73665 48.9113C3.31694 49.0946 3.92829 49.1593 4.5342 49.1016C4.5342 49.1016 4.5342 48.6535 4.63396 47.8498C4.68384 47.4017 4.76222 46.847 4.88335 46.1926C5.55477 42.6842 6.75608 39.298 8.44619 36.1497C8.36781 36.3986 5.87382 44.6847 6.08759 48.874C6.08759 48.938 6.08759 48.9949 6.08759 49.059C6.4795 56.2924 11.0114 58.0706 11.0114 58.0706C11.0114 58.0706 12.2228 58.917 17.2535 59.7776C14.4161 60.0286 11.5658 59.466 9.03762 58.1559C7.31321 58.5614 4.90473 59.7349 5.09712 62.0109C5.42491 65.9513 13.9828 66.2785 20.061 67.5943C24.4518 68.4459 28.9981 67.9499 33.101 66.1718L33.7779 65.8446L33.8991 65.7877C34.4592 65.5012 35.0039 65.1854 35.5308 64.8418C35.8536 65.083 36.1942 65.2993 36.5498 65.489C37.0935 65.7759 37.6702 65.9957 38.2671 66.1433C38.8816 66.3013 39.5138 66.3802 40.1483 66.3781C41.403 66.3786 42.639 66.0737 43.7491 65.4898C44.8591 64.9059 45.8098 64.0606 46.5188 63.0272C47.2277 61.9938 47.6735 60.8034 47.8175 59.5592C47.9615 58.315 47.7994 57.0546 47.3452 55.887C46.6257 54.344 45.4796 53.0383 44.0417 52.1235C42.6039 51.2087 40.9342 50.7229 39.2291 50.7233C38.6309 50.7243 38.0342 50.7839 37.4477 50.9011C37.2196 50.9509 36.9916 51.0007 36.7351 51.0647C35.3596 51.4584 34.0981 52.1744 33.0558 53.1529C32.0134 54.1315 31.2203 55.3444 30.7424 56.6908C31.2656 54.3439 32.6643 52.284 34.6544 50.9296C34.8753 50.7802 35.0962 50.638 35.3242 50.5099C35.5522 50.3819 35.7945 50.261 36.0368 50.1472L36.4073 49.9907C36.9064 49.7881 37.4211 49.6263 37.9464 49.5071C38.2121 49.4453 38.4809 49.3978 38.7516 49.3648C39.1677 49.3135 39.5865 49.2874 40.0058 49.2866C40.6179 49.2853 41.2287 49.3424 41.8299 49.4573C42.1221 49.5142 42.4142 49.5853 42.6993 49.6706C42.9843 49.756 43.2622 49.8485 43.5401 49.9623C43.9463 41.8184 39.3288 32.7783 34.9893 26.2063C35.6543 27.1319 36.393 28.0024 37.1983 28.8095C37.8758 29.5 38.6099 30.1328 39.393 30.7014L39.7136 30.929C40.1303 31.2192 40.5633 31.4851 41.0105 31.7256L41.3383 31.8963C41.6589 32.0528 41.9867 32.1951 42.3074 32.3231C44.3881 33.1126 46.369 33.0344 47.8155 31.6616C47.9225 31.5619 48.0225 31.455 48.1148 31.3416C49.3831 29.9404 49.1836 28.1053 48.1789 26.1067ZM9.59342 9.74781C9.21545 9.74781 8.85296 9.59794 8.5857 9.33117C8.31843 9.0644 8.16829 8.70257 8.16829 8.3253C8.16767 8.14133 8.20391 7.95909 8.27489 7.78931C8.34586 7.61953 8.45014 7.46562 8.58158 7.33665C8.70712 7.20654 8.85729 7.10259 9.02337 7.03081C9.37525 6.88846 9.76884 6.88846 10.1207 7.03081C10.2868 7.10259 10.437 7.20654 10.5625 7.33665C10.6939 7.46562 10.7982 7.61953 10.8692 7.78931C10.9402 7.95909 10.9764 8.14133 10.9758 8.3253C10.9778 8.69652 10.8344 9.05383 10.5761 9.32094C10.3178 9.58805 9.96517 9.74379 9.59342 9.75493V9.74781ZM30.4502 41.9464C21.0942 43.5325 19.8829 16.7324 19.8829 16.7324C19.8829 16.7324 24.201 41.5339 29.7021 40.5666C35.6021 39.5281 27.6356 23.4964 24.3934 15.5303C24.7497 16.1136 39.6922 40.4385 30.4502 41.9464Z" fill="#2E1B2B"/>
</svg>
